<svg width="61" height="52" viewBox="0 0 61 52" fill="none" xmlns="http://www.w3.org/2000/svg">
<path d="M19.5 0C19.6023 0.000734995 19.6889 0.00666358 19.7749 0.0177065L30.3332 1.18949V24.8104L19.7392 25.9869L19.6356 25.996L19.5003 26.0004L19.5389 25.9977L19.3978 25.9982C19.3516 25.996 19.3042 25.9923 19.2568 25.987C19.2074 25.9816 19.1595 25.9746 19.1121 25.966C19.0841 25.9607 19.0545 25.9547 19.025 25.9481C18.9702 25.936 18.9173 25.922 18.8652 25.906C18.8405 25.8981 18.8152 25.8898 18.79 25.881C18.7332 25.8617 18.677 25.8395 18.622 25.815L18.5357 25.7724L18.3667 25.6792L18.3289 25.6566L4.33331 16.9086V49.8334C4.33331 50.9445 3.4969 51.8603 2.41933 51.9854L2.16666 52C0.970045 52 0 51.03 0 49.8334V6.50022C0 5.30361 0.970045 4.33357 2.16666 4.33357C3.36327 4.33357 4.33331 5.30361 4.33331 6.50022V9.09129L18.3043 0.359781C18.3872 0.304826 18.474 0.255448 18.5641 0.212154L18.6161 0.188352L18.6681 0.165926C18.7025 0.151181 18.7378 0.137542 18.7734 0.124818C18.8371 0.102424 18.9024 0.0825763 18.9681 0.0659253L19.0025 0.0572149C19.0592 0.0441551 19.1156 0.033251 19.1722 0.0246275C19.1983 0.020423 19.2259 0.0167537 19.2537 0.0136173C19.3027 0.00823055 19.3509 0.00441628 19.3991 0.00221661L19.4489 0H19.5ZM34.6665 1.67266L43.3331 2.63465V23.3652L34.6665 24.3272V1.67266ZM47.6664 3.11565L58.739 4.34682C59.8363 4.46874 60.6664 5.39621 60.6664 6.50022V19.5002C60.6664 20.6042 59.8363 21.5317 58.739 21.6536L47.6664 22.8842V3.11565ZM17.3333 6.07531L6.2547 13.0002L17.3333 19.9246V6.07531Z" fill="black"/>
</svg>
