<svg width="24" height="24" viewBox="0 0 24 24" fill="none" xmlns="http://www.w3.org/2000/svg">
<path d="M17.6429 11.8551H10.8571V18.6408C10.8571 19.0008 10.7142 19.346 10.4596 19.6005C10.2051 19.855 9.85994 19.998 9.5 19.998C9.14006 19.998 8.79487 19.855 8.54035 19.6005C8.28584 19.346 8.14286 19.0008 8.14286 18.6408V11.8551H1.35714C0.997206 11.8551 0.652012 11.7121 0.397498 11.4576C0.142985 11.2031 0 10.8579 0 10.498C0 10.138 0.142985 9.79285 0.397498 9.53834C0.652012 9.28383 0.997206 9.14084 1.35714 9.14084H8.14286V2.35513C8.14286 1.99519 8.28584 1.65 8.54035 1.39548C8.79487 1.14097 9.14006 0.997986 9.5 0.997986C9.85994 0.997986 10.2051 1.14097 10.4596 1.39548C10.7142 1.65 10.8571 1.99519 10.8571 2.35513V9.14084H17.6429C18.0028 9.14084 18.348 9.28383 18.6025 9.53834C18.857 9.79285 19 10.138 19 10.498C19 10.8579 18.857 11.2031 18.6025 11.4576C18.348 11.7121 18.0028 11.8551 17.6429 11.8551Z" fill="black"/>
</svg>
