<svg width="12" height="12" viewBox="0 0 12 12" fill="none" xmlns="http://www.w3.org/2000/svg">
<path d="M6.00005 10.2C6.66279 10.2 7.20005 9.66273 7.20005 8.99999C7.20005 8.33725 6.66279 7.79999 6.00005 7.79999C5.33731 7.79999 4.80005 8.33725 4.80005 8.99999C4.80005 9.66273 5.33731 10.2 6.00005 10.2Z" fill="black"/>
<path d="M0.599976 4.44001C1.27564 3.61004 2.10659 2.94532 3.03762 2.49001C3.96866 2.0347 4.97847 1.79922 5.99998 1.79922C7.02148 1.79922 8.03129 2.0347 8.96233 2.49001C9.89337 2.94532 10.7243 3.61004 11.4 4.44001L10.5 5.28001C9.93692 4.57134 9.24447 4.00377 8.4686 3.61501C7.69274 3.22625 6.85123 3.02519 5.99998 3.02519C5.14872 3.02519 4.30721 3.22625 3.53135 3.61501C2.75548 4.00377 2.06303 4.57134 1.49998 5.28001L0.599976 4.44001ZM2.81998 6.36001C3.21423 5.87273 3.70574 5.48108 4.26018 5.21242C4.81462 4.94376 5.41861 4.80457 6.02998 4.80457C6.64134 4.80457 7.24534 4.94376 7.79977 5.21242C8.35421 5.48108 8.84572 5.87273 9.23998 6.36001L8.39998 7.20001C8.11887 6.82861 7.76267 6.52886 7.35766 6.32289C6.95266 6.11692 6.50918 6.00999 6.05998 6.00999C5.61077 6.00999 5.1673 6.11692 4.76229 6.32289C4.35728 6.52886 4.00108 6.82861 3.71998 7.20001L2.81998 6.36001Z" fill="black"/>
</svg>
