<svg width="50" height="52" viewBox="0 0 50 52" fill="none" xmlns="http://www.w3.org/2000/svg">
<path d="M24.5348 0C25.474 0 26.248 0.706959 26.3538 1.61774L26.3661 1.83131L26.3673 4.90626C31.0515 5.25294 35.4723 6.92308 39.1824 9.68891C39.9483 8.44687 40.9381 7.06029 42.1479 5.51328C42.8811 4.57568 44.2999 4.57568 45.0331 5.51328C48.3363 9.73734 50.0001 12.7654 50.0001 14.9739C50.0001 16.9827 49.0508 18.7681 47.5736 19.924L47.2716 20.1462L47.4959 20.7105C48.5316 23.454 49.0696 26.3775 49.0696 29.3735C49.0696 30.3849 48.2497 31.2048 47.2383 31.2048C46.2269 31.2048 45.407 30.3849 45.407 29.3735L45.4037 29.2332L35.8766 29.2361C35.6525 29.9942 34.9509 30.5475 34.1201 30.5475C33.2893 30.5475 32.5877 29.9942 32.3637 29.2361L26.3654 29.2332L26.3661 42.7644C26.3661 48.3012 24.1254 51.5547 19.7422 51.5547C15.3589 51.5547 13.1182 48.3012 13.1182 42.7644C13.1182 41.753 13.9381 40.9331 14.9495 40.9331C15.9609 40.9331 16.7808 41.753 16.7808 42.7644C16.7808 46.5063 17.7352 47.8921 19.7422 47.8921C21.6719 47.8921 22.6285 46.6108 22.6993 43.1858L22.7035 42.7644L22.7027 29.2332L16.706 29.2361C16.4819 29.9942 15.7803 30.5475 14.9495 30.5475C14.1187 30.5475 13.4171 29.9942 13.1931 29.2361L3.66308 29.2339L3.66262 29.3735C3.66262 30.3849 2.84271 31.2048 1.83131 31.2048C0.819905 31.2048 0 30.3849 0 29.3735C0 16.4395 10.0083 5.84302 22.7029 4.90601L22.7035 1.83131C22.7035 0.819905 23.5234 0 24.5348 0ZM17.4503 9.73328C10.5652 12.2179 5.36089 18.2205 4.00805 25.5716L13.2102 25.5703C13.5888 19.1567 15.118 13.508 17.4503 9.73328ZM31.6212 9.73426C33.9523 13.5098 35.4809 19.158 35.8595 25.5708H45.0618C44.7963 24.1274 44.3796 22.722 43.8188 21.3719L43.7884 21.2853L43.5905 21.2919C40.1765 21.2919 37.3735 18.6565 37.1904 15.3213L37.1809 14.9739C37.1809 14.3909 37.2968 13.7508 37.5282 13.0467L37.9761 13.4047C36.0792 11.8062 33.9302 10.567 31.6212 9.73426ZM43.5905 9.69267L43.2762 10.1379C41.6508 12.4709 40.8435 14.1386 40.8435 14.9739C40.8435 16.432 42.0652 17.6292 43.5905 17.6292C45.1158 17.6292 46.3375 16.432 46.3375 14.9739C46.3375 14.0864 45.4261 12.2592 43.5905 9.69267Z" fill="black"/>
</svg>
