<svg width="32" height="32" viewBox="0 0 32 32" fill="none" xmlns="http://www.w3.org/2000/svg">
<path d="M2.66675 16C2.66675 12.4638 4.07151 9.07238 6.57199 6.5719C9.07248 4.07141 12.4639 2.66666 16.0001 2.66666C17.751 2.66666 19.4849 3.01153 21.1025 3.6816C22.7202 4.35166 24.1901 5.33378 25.4282 6.5719C26.6663 7.81001 27.6484 9.27987 28.3185 10.8975C28.9885 12.5152 29.3334 14.249 29.3334 16C29.3334 19.5362 27.9287 22.9276 25.4282 25.4281C22.9277 27.9286 19.5363 29.3333 16.0001 29.3333C14.2491 29.3333 12.5153 28.9884 10.8976 28.3184C9.27996 27.6483 7.81011 26.6662 6.57199 25.4281C4.07151 22.9276 2.66675 19.5362 2.66675 16ZM24.0001 14.6667H13.3334L18.0001 9.99999L16.1067 8.10666L8.21341 16L16.1067 23.8933L18.0001 22L13.3334 17.3333H24.0001V14.6667Z" fill="black"/>
</svg>
