<svg width="54" height="56" viewBox="0 0 54 56" fill="none" xmlns="http://www.w3.org/2000/svg">
<path d="M26.4975 0C27.5118 0 28.3478 0.763993 28.462 1.74825L28.4754 1.97905L28.4766 5.30207C33.5355 5.67672 38.3101 7.4816 42.3169 10.4706C43.144 9.12833 44.2131 7.62988 45.5197 5.95806C46.3115 4.94483 47.8438 4.94483 48.6356 5.95806C52.2031 10.5229 54 13.7952 54 16.1819C54 18.3528 52.9748 20.2822 51.3794 21.5314L51.0532 21.7715L51.2955 22.3813C52.414 25.3461 52.9951 28.5055 52.9951 31.7432C52.9951 32.8362 52.1096 33.7222 51.0173 33.7222C49.925 33.7222 49.0395 32.8362 49.0395 31.7432L49.0358 31.5916L38.7466 31.5947C38.5046 32.414 37.7469 33.0119 36.8496 33.0119C35.9524 33.0119 35.1947 32.414 34.9527 31.5947L28.4745 31.5916L28.4754 46.2144C28.4754 52.1979 26.0554 55.7139 21.3215 55.7139C16.5876 55.7139 14.1676 52.1979 14.1676 46.2144C14.1676 45.1214 15.0531 44.2354 16.1454 44.2354C17.2378 44.2354 18.1233 45.1214 18.1233 46.2144C18.1233 50.2582 19.154 51.7558 21.3215 51.7558C23.4056 51.7558 24.4388 50.3712 24.5151 46.6698L24.5197 46.2144L24.5189 31.5916L18.0424 31.5947C17.8004 32.414 17.0427 33.0119 16.1454 33.0119C15.2482 33.0119 14.4905 32.414 14.2485 31.5947L3.95611 31.5923L3.95562 31.7432C3.95562 32.8362 3.07012 33.7222 1.97781 33.7222C0.885496 33.7222 0 32.8362 0 31.7432C0 17.7657 10.8089 6.31441 24.5191 5.30181L24.5197 1.97905C24.5197 0.886051 25.4052 0 26.4975 0ZM18.8463 10.5185C11.4104 13.2036 5.78975 19.6905 4.32868 27.6346L14.267 27.6332C14.6759 20.7022 16.3274 14.5978 18.8463 10.5185ZM34.1508 10.5196C36.6684 14.5997 38.3193 20.7036 38.7281 27.6337H48.6666C48.3799 26.0739 47.9299 24.5551 47.3242 23.0961L47.2914 23.0025L47.0776 23.0096C43.3905 23.0096 40.3633 20.1616 40.1656 16.5573L40.1553 16.1819C40.1553 15.5519 40.2805 14.8602 40.5304 14.0993L41.0141 14.4861C38.9654 12.7587 36.6445 11.4195 34.1508 10.5196ZM47.0776 10.4746L46.7382 10.9557C44.9828 13.477 44.1109 15.2792 44.1109 16.1819C44.1109 17.7577 45.4303 19.0515 47.0776 19.0515C48.725 19.0515 50.0444 17.7577 50.0444 16.1819C50.0444 15.2228 49.0601 13.2482 47.0776 10.4746Z" fill="#5F05F2"/>
</svg>
