<svg width="24" height="24" viewBox="0 0 24 24" fill="none" xmlns="http://www.w3.org/2000/svg">
<path d="M3.12 17.6C2.29252 17.6 1.49894 17.2713 0.913827 16.6862C0.328713 16.1011 0 15.3075 0 14.48V8.72001C0 7.89253 0.328713 7.09895 0.913827 6.51383C1.49894 5.92872 2.29252 5.60001 3.12 5.60001H19.131C19.9585 5.60001 20.7521 5.92872 21.3372 6.51383C21.9223 7.09895 22.251 7.89253 22.251 8.72001V14.48C22.251 15.3075 21.9223 16.1011 21.3372 16.6862C20.7521 17.2713 19.9585 17.6 19.131 17.6H3.12ZM1.108 8.72001V14.48C1.10853 15.0131 1.3206 15.5242 1.69765 15.9011C2.0747 16.2779 2.5859 16.4897 3.119 16.49H19.131C19.6638 16.4895 20.1747 16.2775 20.5513 15.9006C20.928 15.5238 21.1397 15.0128 21.14 14.48V8.72001C21.1395 8.18726 20.9277 7.67646 20.5511 7.29966C20.1744 6.92285 19.6637 6.7108 19.131 6.71001H3.119C2.009 6.71001 1.109 7.61001 1.108 8.72001ZM3.787 15.12C3.44059 15.1187 3.10877 14.9804 2.86392 14.7354C2.61906 14.4903 2.48105 14.1584 2.48 13.812V9.38501C2.48 9.03844 2.61733 8.70599 2.86192 8.46046C3.10651 8.21493 3.43843 8.07633 3.785 8.07501H18.463C18.6351 8.07487 18.8056 8.10866 18.9646 8.17444C19.1237 8.24021 19.2682 8.33669 19.39 8.45834C19.5117 8.58 19.6083 8.72446 19.6742 8.88346C19.7401 9.04246 19.774 9.21289 19.774 9.38501V13.812C19.7719 14.1588 19.633 14.4907 19.3875 14.7356C19.142 14.9806 18.8098 15.1187 18.463 15.12H3.787ZM22.657 9.71001C23.0481 9.84605 23.3873 10.1001 23.6278 10.4371C23.8683 10.7741 23.9983 11.1775 23.9999 11.5915C24.0014 12.0056 23.8744 12.4099 23.6364 12.7487C23.3983 13.0875 23.061 13.3441 22.671 13.483L22.657 13.487V9.71001Z" fill="black"/>
</svg>
