<svg width="60" height="61" viewBox="0 0 60 61" fill="none" xmlns="http://www.w3.org/2000/svg">
<path d="M29.6941 50.4625C30.8788 50.4625 31.8551 51.368 31.9885 52.5345L32.0041 52.808V58.5777C32.0041 59.873 30.9699 60.9231 29.6941 60.9231C28.5095 60.9231 27.5332 60.0177 27.3997 58.8512L27.3842 58.5777V52.808C27.3842 51.5126 28.4184 50.4625 29.6941 50.4625ZM17.2204 44.4318C18.0531 45.2773 18.1171 46.6077 17.4125 47.5279L17.2204 47.7488L13.2024 51.8286C12.3004 52.7445 10.8378 52.7445 9.93568 51.8286C9.10297 50.9831 9.03892 49.6526 9.74351 48.7325L9.93568 48.5115L13.9536 44.4318C14.8557 43.5158 16.3183 43.5158 17.2204 44.4318ZM47.5803 43.2427L47.7979 43.4378L51.8158 47.5176C52.7179 48.4336 52.7179 49.9186 51.8158 50.8346C50.9831 51.6801 49.6729 51.7452 48.7667 51.0297L48.5491 50.8346L44.5311 46.7549C43.6291 45.8389 43.6291 44.3538 44.5311 43.4378C45.3639 42.5923 46.6741 42.5273 47.5803 43.2427ZM29.9941 13.9235C38.9895 13.9235 46.2816 21.3278 46.2816 30.4616C46.2816 39.5953 38.9895 46.9997 29.9941 46.9997C20.9988 46.9997 13.7066 39.5953 13.7066 30.4616C13.7066 21.3278 20.9988 13.9235 29.9941 13.9235ZM57.6901 27.021C58.9659 27.021 60.0001 28.0711 60.0001 29.3665C60.0001 30.5694 59.1083 31.5607 57.9595 31.6962L57.6901 31.712H52.0079C50.7321 31.712 49.6979 30.6619 49.6979 29.3665C49.6979 28.1637 50.5897 27.1723 51.7385 27.0368L52.0079 27.021H57.6901ZM7.99216 27.021C9.26791 27.021 10.3021 28.0711 10.3021 29.3665C10.3021 30.5694 9.41038 31.5607 8.26155 31.6962L7.99216 31.712H2.30995C1.0342 31.712 0 30.6619 0 29.3665C0 28.1637 0.891735 27.1723 2.04057 27.0368L2.30995 27.021H7.99216ZM49.0954 8.7494C49.9975 7.83343 51.46 7.83343 52.3621 8.7494C53.2642 9.66537 53.2642 11.1505 52.3621 12.0664L48.3442 16.1462C47.4421 17.0621 45.9795 17.0621 45.0774 16.1462C44.1753 15.2302 44.1753 13.7451 45.0774 12.8291L49.0954 8.7494ZM12.4385 7.56032L12.6562 7.75544L16.6741 11.8352C17.5762 12.7512 17.5762 14.2362 16.6741 15.1522C15.8414 15.9977 14.5311 16.0628 13.6249 15.3473L13.4073 15.1522L9.38939 11.0725C8.4873 10.1565 8.4873 8.67142 9.38939 7.75544C10.2221 6.90993 11.5324 6.84489 12.4385 7.56032ZM29.6941 0C30.8788 0 31.8551 0.905454 31.9885 2.07196L32.0041 2.34549V8.11512C32.0041 9.4105 30.9699 10.4606 29.6941 10.4606C28.5095 10.4606 27.5332 9.55516 27.3997 8.38865L27.3842 8.11512V2.34549C27.3842 1.05011 28.4184 0 29.6941 0Z" fill="#5F05F2"/>
</svg>
