<svg width="41" height="42" viewBox="0 0 41 42" fill="none" xmlns="http://www.w3.org/2000/svg">
<g clip-path="url(#clip0_15_125)">
<path d="M19.7955 34.9517C20.5742 34.9517 21.2161 35.5522 21.3038 36.3259L21.314 36.5073V40.3338C21.314 41.1929 20.6341 41.8893 19.7955 41.8893C19.0167 41.8893 18.3749 41.2888 18.2872 40.5152L18.277 40.3338V36.5073C18.277 35.6482 18.9568 34.9517 19.7955 34.9517ZM11.5955 30.9521C12.1429 31.5128 12.185 32.3952 11.7218 33.0054L11.5955 33.152L8.95417 35.8577C8.36115 36.4652 7.39968 36.4652 6.80666 35.8577C6.25926 35.297 6.21715 34.4146 6.68034 33.8044L6.80666 33.6578L9.44797 30.9521C10.041 30.3446 11.0025 30.3446 11.5955 30.9521ZM31.5535 30.1635L31.6966 30.2929L34.3379 32.9986C34.9309 33.6061 34.9309 34.591 34.3379 35.1985C33.7905 35.7593 32.9291 35.8024 32.3334 35.3279L32.1904 35.1985L29.549 32.4928C28.956 31.8853 28.956 30.9004 29.549 30.2929C30.0964 29.7321 30.9578 29.689 31.5535 30.1635ZM19.9927 10.7187C25.906 10.7187 30.6998 15.6293 30.6998 21.6869C30.6998 27.7445 25.906 32.6551 19.9927 32.6551C14.0793 32.6551 9.28561 27.7445 9.28561 21.6869C9.28561 15.6293 14.0793 10.7187 19.9927 10.7187ZM38.1995 19.4051C39.0381 19.4051 39.718 20.1015 39.718 20.9606C39.718 21.7584 39.1318 22.4159 38.3766 22.5057L38.1995 22.5162H34.4641C33.6255 22.5162 32.9456 21.8197 32.9456 20.9606C32.9456 20.1629 33.5318 19.5054 34.287 19.4155L34.4641 19.4051H38.1995ZM5.52904 19.4051C6.36769 19.4051 7.04755 20.1015 7.04755 20.9606C7.04755 21.7584 6.46135 22.4159 5.70613 22.5057L5.52904 22.5162H1.79367C0.95501 22.5162 0.275146 21.8197 0.275146 20.9606C0.275146 20.1629 0.861356 19.5054 1.61657 19.4155L1.79367 19.4051H5.52904ZM32.5495 7.28714C33.1425 6.67966 34.104 6.67966 34.697 7.28714C35.29 7.89462 35.29 8.87955 34.697 9.48703L32.0557 12.1928C31.4627 12.8002 30.5012 12.8002 29.9082 12.1928C29.3151 11.5853 29.3151 10.6004 29.9082 9.99287L32.5495 7.28714ZM8.452 6.49854L8.59506 6.62794L11.2364 9.33367C11.8294 9.94115 11.8294 10.9261 11.2364 11.5336C10.689 12.0943 9.82761 12.1374 9.23191 11.663L9.08885 11.5336L6.44755 8.82783C5.85453 8.22035 5.85453 7.23542 6.44755 6.62794C6.99495 6.06719 7.8563 6.02405 8.452 6.49854ZM19.7955 1.48445C20.5742 1.48445 21.2161 2.08495 21.3038 2.85859L21.314 3.04V6.86648C21.314 7.72559 20.6341 8.42204 19.7955 8.42204C19.0167 8.42204 18.3749 7.82153 18.2872 7.04789L18.277 6.86648V3.04C18.277 2.18089 18.9568 1.48445 19.7955 1.48445Z" fill="black"/>
</g>
<defs>
<clipPath id="clip0_15_125">
<rect width="41" height="42" fill="white"/>
</clipPath>
</defs>
</svg>
