<svg width="54" height="52" viewBox="0 0 54 52" fill="none" xmlns="http://www.w3.org/2000/svg">
<path d="M39.2782 0C40.3921 0 41.4811 0.329722 42.408 0.947615C45.0007 2.67613 45.7014 6.17924 43.9728 8.77202C43.8346 8.97934 43.6632 9.15121 43.4703 9.28529C43.8501 9.97629 44.1118 10.7426 44.2281 11.5561L46.2222 11.5556C47.2859 11.5556 48.1481 12.4178 48.1481 13.4815C48.1481 14.4692 47.4047 15.2832 46.4468 15.3945L46.2222 15.4074H45.215L45.8646 17.0313C47.062 20.0248 45.606 23.4221 42.6125 24.6195C42.3515 24.7239 42.0839 24.8091 41.8118 24.8746L40.3986 31.2326C40.3148 31.6097 40.1237 31.9403 39.8616 32.1952C38.95 34.6933 37.0502 36.674 34.6687 37.7149L34.6667 44.2963H47.3489L46.7863 43.7322C46.092 43.0379 46.0386 41.9455 46.6261 41.19L46.7863 41.0085C47.4806 40.3143 48.573 40.2609 49.3285 40.8483L49.51 41.0085L53.3618 44.8604C54.0561 45.5547 54.1095 46.6471 53.522 47.4026L53.3618 47.5841L49.51 51.4359C48.7579 52.188 47.5384 52.188 46.7863 51.4359C46.092 50.7416 46.0386 49.6492 46.6261 48.8937L46.7863 48.7122L47.347 48.1481H16.2047L12.9174 51.4359C12.2231 52.1302 11.1307 52.1836 10.3752 51.5961L10.1937 51.4359C9.49946 50.7416 9.44605 49.6492 10.0335 48.8937L10.1937 48.7122L10.7544 48.1481H8.50104L5.21369 51.4359C4.46157 52.188 3.24214 52.188 2.49002 51.4359C1.79575 50.7416 1.74235 49.6492 2.3298 48.8937L2.49002 48.7122L4.98003 46.2222L2.49002 43.7322C1.7379 42.9801 1.7379 41.7607 2.49002 41.0085C3.12643 40.3721 4.09742 40.2742 4.83678 40.7148L5.03225 40.8483L5.21369 41.0085L8.50296 44.2963H10.7563L10.1937 43.7322C9.49946 43.0379 9.44605 41.9455 10.0335 41.19L10.1937 41.0085C10.888 40.3143 11.9804 40.2609 12.736 40.8483L12.9174 41.0085L16.2067 44.2963H23.1111L23.1108 38.3258C18.9243 37.4758 15.7242 33.9099 15.4296 29.5473L15.3119 29.6801C14.1616 31.036 13.4815 32.786 13.4815 34.6667C13.4815 35.7303 12.6192 36.5926 11.5556 36.5926C10.4919 36.5926 9.62963 35.7303 9.62963 34.6667C9.62963 29.9395 12.4937 25.7642 16.743 23.9961C17.2168 23.1914 17.8066 22.4614 18.4882 21.8289C17.5308 21.4063 16.4866 21.1852 15.4074 21.1852C11.1528 21.1852 7.7037 24.6343 7.7037 28.8889C7.7037 29.9525 6.84144 30.8148 5.77778 30.8148C4.71412 30.8148 3.85185 29.9525 3.85185 28.8889C3.85185 22.5069 9.02545 17.3333 15.4074 17.3333C16.4454 17.3333 17.4646 17.4708 18.4437 17.7368C17.1801 15.2129 14.57 13.4815 11.5556 13.4815C7.30092 13.4815 3.85185 16.9305 3.85185 21.1852C3.85185 22.2488 2.98959 23.1111 1.92593 23.1111C0.862266 23.1111 0 22.2488 0 21.1852C0 14.8032 5.1736 9.62963 11.5556 9.62963C17.358 9.62963 22.1616 13.9063 22.9861 19.4795C23.5144 19.3634 24.0607 19.292 24.6193 19.2682L25.037 19.2593H28.4189L30.896 11.0021C30.9482 10.8283 31.0229 10.667 31.1161 10.5206C31.314 9.88135 31.6031 9.2853 31.9675 8.74636L31.2061 8.46289C29.5003 7.82319 28.3702 6.19244 28.3702 4.37058C28.3702 2.05735 30.1673 0.163858 32.4415 0.0100831L32.7407 0H39.2782ZM30.8148 38.5185H26.963V44.2963H30.8148V38.5185ZM41.1748 15.6782L40.9262 15.8131C40.2835 16.2056 39.8079 16.8549 39.6516 17.6362L39.2365 19.7118C39.2206 19.7913 39.2126 19.8722 39.2126 19.9533C39.2126 20.6337 39.7641 21.1852 40.4444 21.1852C40.6971 21.1852 40.9474 21.137 41.182 21.0432C42.2003 20.6358 42.6956 19.4801 42.2882 18.4618L41.1748 15.6782ZM39.2782 3.85185H32.7407C32.4543 3.85185 32.222 4.0841 32.222 4.37058C32.222 4.54357 32.3079 4.70204 32.4459 4.79738L32.5586 4.85629L35.3429 5.9004C35.4536 5.9419 35.5582 5.99249 35.6562 6.05101C36.2583 5.87284 36.8971 5.77778 37.5556 5.77778C38.7266 5.77778 39.8279 6.07639 40.7874 6.60162L40.8809 6.44079C41.2786 5.64497 41.0308 4.65885 40.2713 4.15255C39.9772 3.95648 39.6317 3.85185 39.2782 3.85185Z" fill="black"/>
</svg>
