<svg width="19" height="19" viewBox="0 0 19 19" fill="none" xmlns="http://www.w3.org/2000/svg">
<path fill-rule="evenodd" clip-rule="evenodd" d="M2.14971 2.01715C1.47167 2.66554 0.932674 3.43752 0.563741 4.28864C0.194809 5.13976 0.0032316 6.0532 4.05328e-05 6.97637C-0.00315053 7.89954 0.182108 8.8142 0.545148 9.6677C0.908189 10.5212 1.44184 11.2967 2.11538 11.9494C2.78891 12.6022 3.58903 13.1194 4.46965 13.4713C5.35028 13.8231 6.29402 14.0027 7.24654 13.9996C8.19906 13.9965 9.14154 13.8108 10.0197 13.4533C10.8979 13.0957 11.6944 12.5733 12.3634 11.9162C13.7029 10.6005 14.451 8.8247 14.4446 6.97637C14.4383 5.12804 13.6778 3.35718 12.3293 2.0502C10.9808 0.743224 9.15363 0.00623149 7.24654 3.93352e-05C5.33945 -0.00615282 3.50724 0.718958 2.14971 2.01715ZM10.5066 10.1166C9.64465 10.952 8.47557 11.4213 7.25656 11.4213C6.03755 11.4213 4.86847 10.952 4.00651 10.1166C3.14454 9.28116 2.66029 8.1481 2.66029 6.96666C2.66029 5.78521 3.14454 4.65215 4.00651 3.81674C4.86847 2.98133 6.03755 2.512 7.25656 2.512C8.47557 2.512 9.64465 2.98133 10.5066 3.81674C11.3686 4.65215 11.8528 5.78521 11.8528 6.96666C11.8528 8.1481 11.3686 9.28116 10.5066 10.1166Z" fill="#5F05F2"/>
<path d="M10.9702 13.2665C10.7872 13.0892 10.6421 12.8786 10.5431 12.6469C10.444 12.4153 10.3931 12.1669 10.3931 11.9162C10.3931 11.6654 10.444 11.4171 10.5431 11.1854C10.6421 10.9537 10.7872 10.7432 10.9702 10.5658C11.1531 10.3885 11.3703 10.2478 11.6094 10.1519C11.8485 10.0559 12.1047 10.0065 12.3634 10.0065C12.6222 10.0065 12.8784 10.0559 13.1175 10.1519C13.3565 10.2478 13.5737 10.3885 13.7567 10.5658L18.3987 15.0661C18.5868 15.2422 18.7369 15.4528 18.8401 15.6857C18.9433 15.9186 18.9977 16.1692 18.9999 16.4226C19.0022 16.6761 18.9524 16.9275 18.8533 17.1621C18.7543 17.3967 18.608 17.6099 18.4231 17.7891C18.2382 17.9684 18.0182 18.1101 17.7762 18.2061C17.5341 18.3021 17.2747 18.3504 17.0132 18.3482C16.7516 18.346 16.4932 18.2933 16.2528 18.1933C16.0125 18.0932 15.7952 17.9478 15.6135 17.7655L10.9702 13.2665Z" fill="#5F05F2"/>
</svg>
