<svg width="57" height="47" viewBox="0 0 57 47" fill="none" xmlns="http://www.w3.org/2000/svg">
<path d="M25.2205 28.4993C25.9968 27.6341 27.3523 27.6341 28.1287 28.4993C32.2483 33.0901 34.3441 36.5831 34.3441 39.3305C34.3441 43.5662 30.9103 47 26.6746 47C22.4388 47 19.0051 43.5662 19.0051 39.3305C19.0051 36.5831 21.1009 33.0901 25.2205 28.4993ZM21.8162 0C30.8237 0 38.3749 6.52874 39.8551 15.1947H42.8566C50.5257 15.1947 56.7428 21.4117 56.7428 29.0808C56.7428 36.7499 50.5257 42.9669 42.8566 42.9669L35.5864 42.9684C36.045 41.8461 36.2978 40.6178 36.2978 39.3305C36.2978 36.0156 34.101 32.2295 29.5828 27.1945C28.03 25.4641 25.3191 25.4641 23.7663 27.1945C19.2481 32.2295 17.0513 36.0156 17.0513 39.3305C17.0513 40.6178 17.3041 41.8461 17.7627 42.9684L11.4997 42.9669C5.14857 42.9669 0 37.8184 0 31.4673C0 28.036 1.51606 24.8611 4.0489 22.707C3.69553 21.2776 3.51473 19.8011 3.51473 18.3015C3.51473 8.19386 11.7086 0 21.8162 0Z" fill="black"/>
</svg>
